<svg width="22" height="20" viewBox="0 0 22 20" fill="none" xmlns="http://www.w3.org/2000/svg">
<path d="M21.4994 5.87234C21.4689 2.90726 19.0526 0.5 16.1253 0.5C13.7895 0.5 12.2246 1.83634 11.3819 2.83366L11 3.2856L10.6181 2.83366C9.77529 1.83634 8.21038 0.5 5.87464 0.5C2.94751 0.5 0.531142 2.90706 0.500491 5.87369C0.474394 8.6295 1.48808 11.1903 3.65867 13.7203L3.65873 13.7203C5.44644 15.8047 7.77646 17.3117 9.85987 18.6592C10.1795 18.8659 10.4933 19.0688 10.7985 19.2695L21.4994 5.87234ZM21.4994 5.87234C21.5276 8.62945 20.5141 11.1885 18.3414 13.7185L18.3411 13.7189C16.5531 15.8049 14.2227 17.3122 12.139 18.6598C11.8198 18.8663 11.5063 19.069 11.2015 19.2695L21.4994 5.87234ZM11 19.4019L10.7988 19.2698H11.2011L11 19.4019Z" fill="#9CA0AE" stroke="#9CA0AE"/>
</svg>
