<svg width="35" height="46" viewBox="0 0 35 46" fill="none" xmlns="http://www.w3.org/2000/svg">
<path d="M30.1875 17.25H28.75V11.5C28.75 5.15759 23.5924 0 17.25 0C10.9076 0 5.75 5.15759 5.75 11.5V17.25H4.3125C1.93585 17.25 0 19.1837 0 21.5625V41.6875C0 44.0663 1.93585 46 4.3125 46H30.1875C32.5641 46 34.5 44.0663 34.5 41.6875V21.5625C34.5 19.1837 32.5641 17.25 30.1875 17.25ZM9.58345 11.5C9.58345 7.27173 13.0217 3.83345 17.25 3.83345C21.4783 3.83345 24.9165 7.27173 24.9165 11.5V17.25H9.58345V11.5Z" fill="#FF005C"/>
</svg>
