<svg width="23" height="23" viewBox="0 0 23 23" fill="none" xmlns="http://www.w3.org/2000/svg">
<path d="M11.5 0C5.15922 0 0 5.15922 0 11.5C0 17.8408 5.15922 23 11.5 23C17.8408 23 23 17.8408 23 11.5C23 5.15922 17.8408 0 11.5 0ZM11.5 21.9336C5.7468 21.9336 1.06639 17.2532 1.06639 11.5C1.06639 5.7468 5.7468 1.06639 11.5 1.06639C17.2532 1.06639 21.9336 5.7468 21.9336 11.5C21.9336 17.2532 17.2532 21.9336 11.5 21.9336Z" fill="#9CA0AE"/>
<path d="M13.9901 11.8796C13.7235 11.6791 13.4163 11.5107 13.0698 11.3752C12.7232 11.2398 12.3713 11.1172 12.014 11.0062C11.6568 10.8953 11.3049 10.7844 10.9583 10.6735C10.6117 10.5626 10.3046 10.4315 10.038 10.2779C9.77141 10.1254 9.55493 9.94198 9.38857 9.72657C9.22221 9.51223 9.13903 9.24136 9.13903 8.91611C9.13903 8.65271 9.19769 8.40104 9.31606 8.16217C9.43336 7.9233 9.60185 7.71322 9.82046 7.533C10.0391 7.35278 10.3025 7.20881 10.6107 7.10111C10.9188 6.9934 11.2601 6.94008 11.6344 6.94008C12.0503 6.94008 12.4033 6.98381 12.6944 7.07018C12.9855 7.15656 13.2297 7.2536 13.427 7.36131C13.6243 7.46902 13.7821 7.56606 13.9005 7.65244C14.0178 7.73881 14.1148 7.78254 14.1916 7.78254C14.2961 7.78254 14.375 7.73455 14.4305 7.63751L14.6384 7.29413C14.2364 6.91982 13.7907 6.64256 13.3022 6.46234C12.9215 6.32264 12.4982 6.23733 12.0322 6.2064V4.36154H10.9658V6.23626C10.6938 6.27359 10.4379 6.33437 10.199 6.42075C9.77567 6.57324 9.41736 6.77799 9.12304 7.03393C8.82871 7.29093 8.60157 7.58845 8.44161 7.92756C8.28165 8.26774 8.20274 8.62072 8.20274 8.98863C8.20274 9.41839 8.28592 9.77669 8.45228 10.0646C8.61863 10.3525 8.83725 10.5968 9.10704 10.7972C9.37791 10.9988 9.68396 11.1651 10.0273 11.2963C10.3707 11.4285 10.7226 11.549 11.0831 11.6599C11.4435 11.7709 11.7954 11.8818 12.1388 11.9927C12.4822 12.1036 12.7882 12.239 13.0591 12.3979C13.3289 12.5579 13.5475 12.7519 13.7139 12.9801C13.8802 13.2094 13.9634 13.4963 13.9634 13.8429C13.9634 14.1542 13.9058 14.4507 13.7917 14.7322C13.6776 15.0127 13.5091 15.2569 13.2873 15.4648C13.0655 15.6728 12.7882 15.8381 12.4555 15.9586C12.1228 16.0802 11.7378 16.1409 11.3017 16.1409C10.8367 16.1409 10.4475 16.0855 10.1318 15.9746C9.8162 15.8637 9.55173 15.7442 9.33632 15.6163C9.12091 15.4883 8.95028 15.3689 8.82125 15.258C8.69328 15.1471 8.58344 15.0916 8.49387 15.0916C8.41709 15.0916 8.35737 15.1055 8.31151 15.1332C8.26672 15.1609 8.2262 15.2025 8.19208 15.258L7.96387 15.612C8.37976 15.9863 8.85111 16.2892 9.37791 16.5216C9.83219 16.7221 10.3622 16.8352 10.9668 16.8629V18.7397H12.0332V16.8149C12.3105 16.7733 12.5696 16.7093 12.8096 16.6208C13.2596 16.4545 13.6392 16.2294 13.9485 15.9447C14.2567 15.66 14.4913 15.3241 14.6502 14.9359C14.8091 14.5477 14.889 14.1286 14.889 13.6776C14.889 13.2617 14.8059 12.9076 14.6395 12.6165C14.4731 12.3275 14.2567 12.0812 13.9901 11.8796Z" fill="#9CA0AE"/>
</svg>
