<svg width="14" height="18" viewBox="0 0 14 18" fill="none" xmlns="http://www.w3.org/2000/svg">
<path d="M11.8125 6.75H3.75005V4.5C3.75005 2.84546 5.09546 1.50005 6.75 1.50005C8.40454 1.50005 9.74995 1.84546 9.74995 3.5C9.74995 3.91405 10.0853 4.24995 10.5 4.24995C10.9148 4.24995 11.25 3.91405 11.25 3.5C11.25 1.01819 9.23181 0 6.75 0C4.26819 0 2.25 2.01819 2.25 4.5V6.75H1.6875C0.757507 6.75 0 7.50668 0 8.4375V16.3125C0 17.2433 0.757507 18 1.6875 18H11.8125C12.7425 18 13.5 17.2433 13.5 16.3125V8.4375C13.5 7.50668 12.7425 6.75 11.8125 6.75Z" fill="#FF005C"/>
</svg>
